<svg width="230" height="44" viewBox="0 0 230 44" fill="none" xmlns="http://www.w3.org/2000/svg">
<path d="M178 3H174V35H178V3Z" fill="#0E7F0D" stroke="#0E7F0D" stroke-width="0.5"/>
<path fill-rule="evenodd" clip-rule="evenodd" d="M170 3H165.983V28.3333C165.983 29.6667 165.983 30.3333 165.648 30.6667C165.314 31 164.644 31 163.305 31H153.312C155.289 30.5302 156.074 29.8649 156.66 27.6667V16.3333C156.66 12.3333 152.643 11 151.304 11H140.592C137.914 11 135.236 14.3333 135.236 16.3333C135.236 17.4948 135.224 18.9771 135.212 20.4891C135.187 23.6057 135.161 26.8483 135.236 27.6667C133.837 29.5626 132.715 30.1812 130.5 31H122.466C124.443 30.5302 125.228 29.8649 125.813 27.6667V16.3333C125.813 12.3333 121.797 11 120.458 11H109.746C107.068 11 104.39 14.3333 104.39 16.3333C104.39 17.4948 104.378 18.9771 104.366 20.4891C104.341 23.6057 104.315 26.8483 104.39 27.6667C104.501 28.882 107.068 31 109.076 31H97.6949C95.0169 31 95.0169 30.3333 95.0169 28.3333V3H91V29.6667C91 33.6667 93.0085 35 97.0254 35H132.508L136.525 32.3333L140.542 35H164.644C168.661 35 170 33.6667 170 29.6667V3ZM143.94 15C141.261 15 139.923 15.6667 139.923 17.6667V27C139.922 29 141.596 31 143.27 31H149.295C151.304 30.3333 151.973 29 151.973 27V17.6667C151.973 15.6667 149.295 15 147.956 15H143.94ZM109.076 17.6667C109.076 15.6667 110.415 15 113.093 15H117.11C118.449 15 121.127 15.6667 121.127 17.6667V27C121.127 29 120.458 30.3333 118.449 31H112.424C110.75 31 109.076 29 109.076 27V17.6667Z" fill="#0E7F0D"/>
<path d="M163.305 31C160.181 31 153.808 31 153.312 31M163.305 31H153.312M163.305 31C164.644 31 165.314 31 165.648 30.6667C165.983 30.3333 165.983 29.6667 165.983 28.3333V3H170V29.6667C170 33.6667 168.661 35 164.644 35H140.542L136.525 32.3333L132.508 35H97.0254C93.0085 35 91 33.6667 91 29.6667V3H95.0169V28.3333C95.0169 30.3333 95.0169 31 97.6949 31H109.076C107.068 31 104.501 28.882 104.39 27.6667C104.315 26.8483 104.341 23.6057 104.366 20.4891C104.378 18.9771 104.39 17.4948 104.39 16.3333C104.39 14.3333 107.068 11 109.746 11H120.458C121.797 11 125.813 12.3333 125.813 16.3333V27.6667C125.228 29.8649 124.443 30.5302 122.466 31H130.5C132.715 30.1812 133.837 29.5626 135.236 27.6667C135.161 26.8483 135.187 23.6057 135.212 20.4891C135.224 18.9771 135.236 17.4948 135.236 16.3333C135.236 14.3333 137.914 11 140.592 11H151.304C152.643 11 156.66 12.3333 156.66 16.3333V27.6667C156.074 29.8649 155.289 30.5302 153.312 31M143.94 15C141.261 15 139.923 15.6667 139.923 17.6667V27C139.922 29 141.596 31 143.27 31H149.295C151.304 30.3333 151.973 29 151.973 27V17.6667C151.973 15.6667 149.295 15 147.956 15H143.94ZM113.093 15C110.415 15 109.076 15.6667 109.076 17.6667V27C109.076 29 110.75 31 112.424 31H118.449C120.458 30.3333 121.127 29 121.127 27V17.6667C121.127 15.6667 118.449 15 117.11 15H113.093Z" stroke="#0E7F0D" stroke-width="0.5"/>
<path d="M212 13.1053V9H221.154C226.385 9 229 11.7368 229 17.2105V26.7895C229 32.2632 226.385 35 221.154 35H212V30.8947H221.154C223.769 30.8947 225.077 29.5263 225.077 26.7895V17.2105C225.077 14.4737 223.769 13.1053 221.154 13.1053H212Z" fill="#0E7F0D" stroke="#0E7F0D" stroke-width="0.5"/>
<path d="M208 3H204V35H208V3Z" fill="#0E7F0D" stroke="#0E7F0D" stroke-width="0.5"/>
<path d="M201 11H196.875V36.3333C196.875 39 196.188 39 194.125 39H190V43H195.5C199.625 43 201 40.3333 201 36.3333V11Z" fill="#0E7F0D" stroke="#0E7F0D" stroke-width="0.5"/>
<path fill-rule="evenodd" clip-rule="evenodd" d="M69.3571 39.3043V42H81.5714C85.6429 42 87 40.6522 87 36.6087V13.6957C87 12.3478 85.6429 11 84.2857 11H73.4286C70.7142 11 68 12.3478 68 16.3913V28.5217C68 32.5652 70.7143 33.913 73.4286 33.913H82.9286C83.6071 33.913 83.9464 33.913 84.1161 34.0815C84.2857 34.25 84.2857 34.587 84.2857 35.2609C84.2857 37.2826 82.25 39.3043 80.2143 39.3043H69.3571ZM84.2857 31.2174L84.2857 15.0435H74.7857C73.4286 15.0435 72.0714 15.7174 72.0714 17.7391V28.5217C72.0714 29.8696 73.4286 31.2174 74.7857 31.2174H84.2857Z" fill="#0E7F0D"/>
<path d="M84.2857 15.0435C84.2857 15.5826 84.2857 26.0507 84.2857 31.2174M84.2857 15.0435H74.7857C73.4286 15.0435 72.0714 15.7174 72.0714 17.7391V28.5217C72.0714 29.8696 73.4286 31.2174 74.7857 31.2174H84.2857M84.2857 15.0435L84.2857 31.2174M69.3571 39.3043V42H81.5714C85.6429 42 87 40.6522 87 36.6087V13.6957C87 12.3478 85.6429 11 84.2857 11H73.4286C70.7142 11 68 12.3478 68 16.3913V28.5217C68 32.5652 70.7143 33.913 73.4286 33.913H82.9286C83.6071 33.913 83.9464 33.913 84.1161 34.0815C84.2857 34.25 84.2857 34.587 84.2857 35.2609C84.2857 37.2826 82.25 39.3043 80.2143 39.3043H69.3571Z" stroke="#0E7F0D" stroke-width="0.5"/>
<path fill-rule="evenodd" clip-rule="evenodd" d="M59.9787 3H64V29.6667C64 32.3333 62.6596 35 59.9787 35H49.2553C48.0719 34.1698 47.4741 33.6007 46.5745 32.3333C45.5961 33.5846 45.0254 34.2182 43.8936 35H34.5106C33.1153 34.3043 32.5076 33.743 31.8298 32.3333C31.2089 33.6492 30.6576 34.2563 29.1489 35H6.3617C3.68085 35 1 32.3333 1 29.6667V16.3333C1 13.6667 3.68085 11 6.3617 11H15.7447V8.33333H21.1064V31H27.1383C28.1436 31 28.6463 31 28.8976 30.75C29.1489 30.5 29.1489 30 29.1489 29V11H33.1702V28.3333C33.1702 29.6667 34.5106 31 35.8511 31H41.2128C42.5532 31 43.8936 29.6667 43.8936 28.3333V11H47.9149V28.3333C47.9149 29.6667 49.2553 31 50.5957 31H57.2979C58.6383 31 59.3085 31 59.6436 30.6667C59.9787 30.3333 59.9787 29.6667 59.9787 28.3333V3ZM15.7447 31V15H7.70213C6.3617 15 5.02128 16.3333 5.02128 17.6667V28.3333C5.02128 29.6667 6.3617 31 7.70213 31H15.7447Z" fill="#0E7F0D" stroke="#0E7F0D" stroke-width="0.5"/>
<path d="M17 1H14V4H17V1Z" fill="#0E7F0D" stroke="#0E7F0D" stroke-width="0.5"/>
<path d="M11 1H8V4H11V1Z" fill="#0E7F0D" stroke="#0E7F0D" stroke-width="0.5"/>
<path d="M51 3H48V6H51V3Z" fill="#0E7F0D" stroke="#0E7F0D" stroke-width="0.5"/>
<path d="M45 3H42V6H45V3Z" fill="#0E7F0D" stroke="#0E7F0D" stroke-width="0.5"/>
<path d="M36 39H33V42H36V39Z" fill="#0E7F0D" stroke="#0E7F0D" stroke-width="0.5"/>
<path d="M30 39H27V42H30V39Z" fill="#0E7F0D" stroke="#0E7F0D" stroke-width="0.5"/>
<path d="M119 3H116V6H119V3Z" fill="#0E7F0D" stroke="#0E7F0D" stroke-width="0.5"/>
<path d="M113 3H110V6H113V3Z" fill="#0E7F0D" stroke="#0E7F0D" stroke-width="0.5"/>
</svg>
