<svg width="40" height="40" viewBox="0 0 40 40" fill="none" xmlns="http://www.w3.org/2000/svg">
<path d="M0 20C0 8.95431 8.95431 0 20 0C31.0457 0 40 8.95431 40 20C40 31.0457 31.0457 40 20 40C8.95431 40 0 31.0457 0 20Z" fill="#C4C4C4"/>
<path d="M28.5714 17.8571H22.1429V11.4286C22.1429 10.6397 21.5031 10 20.7143 10H19.2857C18.4969 10 17.8571 10.6397 17.8571 11.4286V17.8571H11.4286C10.6397 17.8571 10 18.4969 10 19.2857V20.7143C10 21.5031 10.6397 22.1429 11.4286 22.1429H17.8571V28.5714C17.8571 29.3603 18.4969 30 19.2857 30H20.7143C21.5031 30 22.1429 29.3603 22.1429 28.5714V22.1429H28.5714C29.3603 22.1429 30 21.5031 30 20.7143V19.2857C30 18.4969 29.3603 17.8571 28.5714 17.8571Z" fill="#838181"/>
</svg>
